<svg width="160" height="30" viewBox="0 0 160 30" fill="none" xmlns="http://www.w3.org/2000/svg">
<path d="M89.5396 22.0167H92.9751V9.05808H89.5396V22.0167ZM89.5396 7.03727H92.9751V3.95549H89.5396V7.03727Z" fill="black"/>
<path d="M95.1891 26.2605H98.6246V20.5516H98.6747C99.407 21.6631 100.595 22.3957 102.413 22.3957C105.748 22.3957 108.021 19.7433 108.021 15.5501C108.021 11.5083 105.824 8.70443 102.388 8.70443C100.62 8.70443 99.407 9.53808 98.5738 10.6748H98.4979V9.05808H95.1891V26.2605ZM101.681 19.5412C99.6347 19.5412 98.5487 18.0003 98.5487 15.6511C98.5487 13.3271 99.407 11.4831 101.555 11.4831C103.677 11.4831 104.535 13.2008 104.535 15.6511C104.535 18.1014 103.424 19.5412 101.681 19.5412Z" fill="black"/>
<path d="M114.874 22.3957C118.108 22.3957 120.33 20.8295 120.33 18.2276C120.33 15.1964 117.931 14.5902 115.758 14.1355C113.914 13.7566 112.197 13.6555 112.197 12.5441C112.197 11.6094 113.081 11.1042 114.419 11.1042C115.885 11.1042 116.769 11.6094 116.92 12.9987H120.027C119.775 10.3969 117.88 8.70443 114.47 8.70443C111.514 8.70443 109.191 10.0433 109.191 12.8472C109.191 15.6764 111.464 16.3078 113.788 16.7626C115.556 17.1162 117.198 17.2425 117.198 18.4803C117.198 19.3897 116.339 19.9707 114.824 19.9707C113.283 19.9707 112.222 19.3138 111.995 17.8235H108.812C109.014 20.5769 111.111 22.3957 114.874 22.3957Z" fill="black"/>
<path d="M133.373 22.0167V9.05808H129.938V16.5352C129.938 18.2529 128.953 19.4654 127.336 19.4654C125.871 19.4654 125.189 18.6318 125.189 17.1162V9.05808H121.779V17.6972C121.779 20.5263 123.395 22.3704 126.275 22.3704C128.094 22.3704 129.105 21.6884 129.989 20.5011H130.065V22.0167H133.373Z" fill="black"/>
<path d="M135.595 22.0167H139.031V14.4891C139.031 12.7714 139.966 11.66 141.355 11.66C142.618 11.66 143.351 12.4177 143.351 13.8829V22.0167H146.786V14.4891C146.786 12.7714 147.67 11.66 149.11 11.66C150.373 11.66 151.106 12.4177 151.106 13.8829V22.0167H154.541V13.3018C154.541 10.4727 153 8.70443 150.272 8.70443C148.63 8.70443 147.266 9.56328 146.382 10.9779H146.332C145.7 9.61382 144.386 8.70443 142.744 8.70443C140.951 8.70443 139.688 9.61382 138.981 10.801H138.905V9.05808H135.595V22.0167Z" fill="black"/>
<path d="M0 22.0167H3.43542V3.95549H0V22.0167Z" fill="black"/>
<path d="M11.8356 22.3957C15.852 22.3957 18.6053 19.4149 18.6053 15.5501C18.6053 11.6852 15.852 8.70443 11.8356 8.70443C7.81909 8.70443 5.06571 11.6852 5.06571 15.5501C5.06571 19.4149 7.81909 22.3957 11.8356 22.3957ZM11.8356 19.7686C9.71368 19.7686 8.55165 18.0761 8.55165 15.5501C8.55165 13.024 9.71368 11.3063 11.8356 11.3063C13.9322 11.3063 15.1194 13.024 15.1194 15.5501C15.1194 18.0761 13.9322 19.7686 11.8356 19.7686Z" fill="black"/>
<path d="M25.9111 26.4373C27.8309 26.4373 29.4981 25.9827 30.5843 24.9722C31.5442 24.0881 32.1252 22.8503 32.1252 21.0316V9.05808H28.8161V10.4222H28.7656C27.9825 9.33599 26.7953 8.70443 25.1786 8.70443C21.8947 8.70443 19.5708 11.18 19.5708 15.0448C19.5708 18.9602 22.3999 21.2336 25.2797 21.2336C26.9215 21.2336 27.9067 20.5769 28.6645 19.718H28.7403V21.1326C28.7403 22.9009 27.8057 23.8355 25.8606 23.8355C24.2692 23.8355 23.5366 23.204 23.2588 22.3957H19.8486C20.2022 24.9217 22.3747 26.4373 25.9111 26.4373ZM25.8606 18.4803C24.0924 18.4803 22.9304 17.192 22.9304 14.9943C22.9304 12.8219 24.0924 11.4579 25.8353 11.4579C27.9067 11.4579 28.9171 13.0746 28.9171 14.9691C28.9171 16.8889 28.033 18.4803 25.8606 18.4803Z" fill="black"/>
<path d="M40.4756 22.3957C44.492 22.3957 47.2454 19.4149 47.2454 15.5501C47.2454 11.6852 44.492 8.70443 40.4756 8.70443C36.4592 8.70443 33.7057 11.6852 33.7057 15.5501C33.7057 19.4149 36.4592 22.3957 40.4756 22.3957ZM40.4756 19.7686C38.3537 19.7686 37.1917 18.0761 37.1917 15.5501C37.1917 13.024 38.3537 11.3063 40.4756 11.3063C42.5722 11.3063 43.7595 13.024 43.7595 15.5501C43.7595 18.0761 42.5722 19.7686 40.4756 19.7686Z" fill="black"/>
<path d="M155.789 6.93061C155.789 6.34932 156.261 5.87809 156.842 5.87809H158.947C159.528 5.87809 160 6.34932 160 6.93061C160 7.51191 159.528 7.98314 158.947 7.98314H156.842C156.261 7.98314 155.789 7.51191 155.789 6.93061Z" fill="black"/>
<path fill-rule="evenodd" clip-rule="evenodd" d="M68.0796 0.264648C76.2174 0.264648 82.8151 6.86187 82.8151 14.9999C82.8151 23.138 76.2174 29.7352 68.0796 29.7352C59.9415 29.7352 53.3443 23.138 53.3443 14.9999C53.3443 6.86187 59.9415 0.264648 68.0796 0.264648ZM67.547 1.36728C65.8659 1.60386 64.2652 2.95463 63.0227 5.21379C62.6623 5.86909 62.337 6.59306 62.0537 7.37475C63.7432 6.95018 65.5992 6.69986 67.547 6.66114V1.36728ZM60.8083 7.72866C61.1607 6.62262 61.5918 5.60501 62.0893 4.70045C62.7053 3.58052 63.4363 2.61342 64.2599 1.87063C59.7812 3.17135 56.251 6.70161 54.9503 11.1803C55.6931 10.3567 56.6601 9.62568 57.7801 9.00975C58.6847 8.51221 59.7022 8.08106 60.8083 7.72866ZM60.4544 8.97402C60.0298 10.6636 59.7795 12.5195 59.7408 14.4673H54.4469C54.6835 12.7863 56.0343 11.1856 58.2935 9.94308C58.9487 9.58266 59.6727 9.25745 60.4544 8.97402ZM60.8062 14.4673C60.8502 12.3417 61.1562 10.3461 61.6625 8.58287C63.4258 8.07656 65.4214 7.77051 67.547 7.72653V10.0274C66.754 12.0574 65.1367 13.6746 63.1065 14.4673H60.8062ZM59.7408 15.5325H54.4469C54.6835 17.2136 56.0343 18.8142 58.2935 20.0568C58.9487 20.4172 59.6727 20.7424 60.4544 21.0259C60.0298 19.3363 59.7795 17.4803 59.7408 15.5325ZM61.6625 21.417C61.1562 19.6538 60.8502 17.6582 60.8062 15.5325H63.1065C65.1367 16.3252 66.754 17.9424 67.547 19.9725V22.2734C65.4214 22.2294 63.4258 21.9233 61.6625 21.417ZM60.8083 22.2712C59.7022 21.9188 58.6847 21.4877 57.7801 20.9901C56.6601 20.3742 55.6931 19.6432 54.9503 18.8195C56.251 23.2983 59.7812 26.8285 64.2599 28.1292C63.4363 27.3864 62.7053 26.4193 62.0893 25.2994C61.5918 24.3949 61.1607 23.3772 60.8083 22.2712ZM67.547 28.6326C65.8659 28.396 64.2652 27.0452 63.0227 24.7861C62.6623 24.1308 62.337 23.4068 62.0537 22.6252C63.7432 23.0497 65.5992 23.3 67.547 23.3387V28.6326ZM71.8992 28.1292C72.7228 27.3864 73.4538 26.4193 74.0697 25.2994C74.567 24.3949 74.9988 23.3772 75.351 22.2712C76.4568 21.9188 77.4743 21.4877 78.3791 20.9901C79.4989 20.3742 80.4663 19.6432 81.209 18.8195C79.9078 23.2983 76.378 26.8285 71.8992 28.1292ZM74.1058 22.6252C73.8222 23.4068 73.4965 24.1308 73.1362 24.7861C71.8939 27.0452 70.2932 28.396 68.6121 28.6326V23.3387C70.5599 23.3 72.4159 23.0497 74.1058 22.6252ZM75.7046 21.0259C76.4863 20.7424 77.2105 20.4172 77.8655 20.0568C80.1252 18.8143 81.4757 17.2136 81.7122 15.5325H76.4185C76.3795 17.4803 76.129 19.3363 75.7046 21.0259ZM75.3532 15.5325C75.309 17.6582 75.0032 19.6538 74.4963 21.417C72.7334 21.9233 70.7378 22.2294 68.6121 22.2734V19.9742C69.4049 17.9434 71.0226 16.3255 73.0533 15.5325H75.3532ZM76.4185 14.4673H81.7122C81.4757 12.7863 80.1252 11.1856 77.8655 9.94308C77.2105 9.58266 76.4863 9.25745 75.7046 8.97402C76.129 10.6636 76.3795 12.5195 76.4185 14.4673ZM74.4963 8.58287C75.0032 10.3461 75.309 12.3417 75.3532 14.4673H73.0534C71.0226 13.6744 69.4049 12.0565 68.6121 10.0257V7.72653C70.7378 7.77051 72.7334 8.07656 74.4963 8.58287ZM75.351 7.72866C76.4568 8.08106 77.4743 8.51221 78.3791 9.00975C79.4989 9.62568 80.4663 10.3567 81.209 11.1803C79.9078 6.70161 76.378 3.17135 71.8992 1.87063C72.7228 2.61342 73.4538 3.58052 74.0697 4.70045C74.567 5.60501 74.9988 6.62262 75.351 7.72866ZM68.6121 1.36728C70.2932 1.60386 71.8939 2.95463 73.1362 5.21379C73.4965 5.8691 73.8222 6.59306 74.1058 7.37475C72.4159 6.95018 70.5599 6.69986 68.6121 6.66114V1.36728Z" fill="black"/>
</svg>
