<svg width="218" height="40" viewBox="0 0 218 40" fill="none" xmlns="http://www.w3.org/2000/svg">
<path d="M121.531 29.5238H126.194V11.9352H121.531V29.5238ZM121.531 9.19238H126.194V5.00952H121.531V9.19238Z" fill="white"/>
<path d="M129.199 35.2838H133.862V27.5352H133.93C134.924 29.0438 136.536 30.0381 139.004 30.0381C143.53 30.0381 146.616 26.4381 146.616 20.7467C146.616 15.2609 143.633 11.4552 138.97 11.4552C136.57 11.4552 134.924 12.5867 133.793 14.1295H133.69V11.9352H129.199V35.2838ZM138.01 26.1638C135.233 26.1638 133.759 24.0724 133.759 20.8838C133.759 17.7295 134.924 15.2267 137.839 15.2267C140.719 15.2267 141.884 17.5581 141.884 20.8838C141.884 24.2095 140.376 26.1638 138.01 26.1638Z" fill="white"/>
<path d="M155.917 30.0381C160.306 30.0381 163.323 27.9124 163.323 24.3809C163.323 20.2667 160.066 19.4438 157.117 18.8267C154.614 18.3124 152.283 18.1752 152.283 16.6667C152.283 15.3981 153.483 14.7124 155.3 14.7124C157.289 14.7124 158.489 15.3981 158.694 17.2838H162.911C162.569 13.7524 159.997 11.4552 155.369 11.4552C151.357 11.4552 148.203 13.2724 148.203 17.0781C148.203 20.9181 151.289 21.7752 154.443 22.3924C156.843 22.8724 159.071 23.0438 159.071 24.7238C159.071 25.9581 157.906 26.7467 155.849 26.7467C153.757 26.7467 152.317 25.8552 152.009 23.8324H147.689C147.963 27.5695 150.809 30.0381 155.917 30.0381Z" fill="white"/>
<path d="M181.026 29.5238V11.9352H176.363V22.0838C176.363 24.4152 175.026 26.0609 172.832 26.0609C170.843 26.0609 169.918 24.9295 169.918 22.8724V11.9352H165.289V23.6609C165.289 27.5009 167.483 30.0038 171.392 30.0038C173.861 30.0038 175.232 29.0781 176.432 27.4667H176.535V29.5238H181.026Z" fill="white"/>
<path d="M184.042 29.5238H188.705V19.3067C188.705 16.9752 189.974 15.4667 191.86 15.4667C193.574 15.4667 194.568 16.4952 194.568 18.4838V29.5238H199.231V19.3067C199.231 16.9752 200.431 15.4667 202.385 15.4667C204.1 15.4667 205.094 16.4952 205.094 18.4838V29.5238H209.757V17.6952C209.757 13.8552 207.665 11.4552 203.962 11.4552C201.734 11.4552 199.882 12.6209 198.682 14.5409H198.614C197.757 12.6895 195.974 11.4552 193.745 11.4552C191.311 11.4552 189.597 12.6895 188.637 14.3009H188.534V11.9352H184.042V29.5238Z" fill="white"/>
<path d="M0 29.5238H4.66285V5.00952H0V29.5238Z" fill="white"/>
<path d="M16.0642 30.0381C21.5156 30.0381 25.2527 25.9924 25.2527 20.7467C25.2527 15.5009 21.5156 11.4552 16.0642 11.4552C10.6127 11.4552 6.87562 15.5009 6.87562 20.7467C6.87562 25.9924 10.6127 30.0381 16.0642 30.0381ZM16.0642 26.4724C13.1842 26.4724 11.607 24.1752 11.607 20.7467C11.607 17.3181 13.1842 14.9867 16.0642 14.9867C18.9099 14.9867 20.5213 17.3181 20.5213 20.7467C20.5213 24.1752 18.9099 26.4724 16.0642 26.4724Z" fill="white"/>
<path d="M35.1688 35.5238C37.7745 35.5238 40.0374 34.9067 41.5116 33.5352C42.8145 32.3352 43.6031 30.6552 43.6031 28.1867V11.9352H39.1117V13.7867H39.0431C37.9802 12.3124 36.3688 11.4552 34.1745 11.4552C29.7174 11.4552 26.5631 14.8152 26.5631 20.0609C26.5631 25.3752 30.4031 28.4609 34.3117 28.4609C36.5402 28.4609 37.8774 27.5695 38.9059 26.4038H39.0088V28.3238C39.0088 30.7238 37.7402 31.9924 35.1002 31.9924C32.9402 31.9924 31.9459 31.1352 31.5688 30.0381H26.9402C27.4202 33.4667 30.3688 35.5238 35.1688 35.5238ZM35.1002 24.7238C32.7002 24.7238 31.1231 22.9752 31.1231 19.9924C31.1231 17.0438 32.7002 15.1924 35.0659 15.1924C37.8774 15.1924 39.2488 17.3867 39.2488 19.9581C39.2488 22.5638 38.0488 24.7238 35.1002 24.7238Z" fill="white"/>
<path d="M54.9369 30.0381C60.3883 30.0381 64.1255 25.9924 64.1255 20.7467C64.1255 15.5009 60.3883 11.4552 54.9369 11.4552C49.4855 11.4552 45.7483 15.5009 45.7483 20.7467C45.7483 25.9924 49.4855 30.0381 54.9369 30.0381ZM54.9369 26.4724C52.0569 26.4724 50.4798 24.1752 50.4798 20.7467C50.4798 17.3181 52.0569 14.9867 54.9369 14.9867C57.7826 14.9867 59.3941 17.3181 59.3941 20.7467C59.3941 24.1752 57.7826 26.4724 54.9369 26.4724Z" fill="white"/>
<path d="M211.451 9.04762C211.451 8.25864 212.091 7.61905 212.88 7.61905H215.737C216.526 7.61905 217.166 8.25864 217.166 9.04762C217.166 9.8366 216.526 10.4762 215.737 10.4762H212.88C212.091 10.4762 211.451 9.8366 211.451 9.04762Z" fill="white"/>
<path fill-rule="evenodd" clip-rule="evenodd" d="M92.4035 0C103.449 0 112.404 8.95431 112.404 20C112.404 31.0457 103.449 40 92.4035 40C81.3578 40 72.4035 31.0457 72.4035 20C72.4035 8.95431 81.3578 0 92.4035 0ZM91.6806 1.49659C89.3989 1.81769 87.2263 3.65108 85.5398 6.7174C85.0506 7.60683 84.6092 8.58946 84.2246 9.65044C86.5178 9.07417 89.0369 8.73442 91.6806 8.68187V1.49659ZM82.5342 10.1308C83.0126 8.62958 83.5977 7.2484 84.273 6.02065C85.109 4.50059 86.1012 3.18795 87.2191 2.17977C81.1402 3.94523 76.3487 8.73679 74.5832 14.8157C75.5914 13.6978 76.904 12.7056 78.4241 11.8696C79.6519 11.1943 81.033 10.6091 82.5342 10.1308ZM82.0539 11.8211C81.4776 14.1143 81.1379 16.6334 81.0853 19.2771H73.9C74.2211 16.9954 76.0545 14.8228 79.1209 13.1364C80.0103 12.6472 80.9929 12.2058 82.0539 11.8211ZM82.5314 19.2771C82.5911 16.392 83.0065 13.6834 83.6937 11.2902C86.0869 10.603 88.7955 10.1876 91.6806 10.1279V13.2508C90.6043 16.0062 88.4091 18.2012 85.6536 19.2771H82.5314ZM81.0853 20.7229H73.9C74.2211 23.0046 76.0545 25.1771 79.1209 26.8636C80.0103 27.3528 80.9929 27.7942 82.0539 28.1789C81.4776 25.8857 81.1379 23.3666 81.0853 20.7229ZM83.6937 28.7098C83.0065 26.3166 82.5911 23.608 82.5314 20.7229H85.6536C88.4091 21.7988 90.6043 23.9938 91.6806 26.7492V29.8721C88.7955 29.8124 86.0869 29.397 83.6937 28.7098ZM82.5342 29.8692C81.033 29.3909 79.6519 28.8057 78.4241 28.1304C76.904 27.2944 75.5914 26.3022 74.5832 25.1843C76.3487 31.2632 81.1402 36.0548 87.2191 37.8202C86.1012 36.812 85.109 35.4994 84.273 33.9793C83.5977 32.7516 83.0126 31.3704 82.5342 29.8692ZM91.6806 38.5034C89.3989 38.1823 87.2263 36.3489 85.5398 33.2826C85.0506 32.3932 84.6092 31.4105 84.2246 30.3496C86.5178 30.9258 89.0369 31.2656 91.6806 31.3181V38.5034ZM97.5878 37.8202C98.7057 36.812 99.6978 35.4994 100.534 33.9793C101.209 32.7516 101.795 31.3704 102.273 29.8692C103.774 29.3909 105.155 28.8057 106.383 28.1304C107.903 27.2944 109.216 26.3022 110.224 25.1843C108.458 31.2632 103.667 36.0548 97.5878 37.8202ZM100.583 30.3496C100.198 31.4105 99.7558 32.3932 99.2668 33.2826C97.5806 36.3489 95.408 38.1823 93.1263 38.5034V31.3181C95.77 31.2656 98.2891 30.9258 100.583 30.3496ZM102.753 28.1789C103.814 27.7942 104.797 27.3528 105.686 26.8636C108.753 25.1772 110.586 23.0046 110.907 20.7229H103.722C103.669 23.3666 103.329 25.8857 102.753 28.1789ZM102.276 20.7229C102.216 23.608 101.801 26.3166 101.113 28.7098C98.72 29.397 96.0114 29.8124 93.1263 29.8721V26.7515C94.2023 23.9951 96.398 21.7991 99.1542 20.7229H102.276ZM103.722 19.2771H110.907C110.586 16.9954 108.753 14.8228 105.686 13.1364C104.797 12.6472 103.814 12.2058 102.753 11.8211C103.329 14.1143 103.669 16.6334 103.722 19.2771ZM101.113 11.2902C101.801 13.6834 102.216 16.392 102.276 19.2771H99.1543C96.398 18.2009 94.2023 16.0049 93.1263 13.2485V10.1279C96.0114 10.1876 98.72 10.603 101.113 11.2902ZM102.273 10.1308C103.774 10.6091 105.155 11.1943 106.383 11.8696C107.903 12.7056 109.216 13.6978 110.224 14.8157C108.458 8.73679 103.667 3.94523 97.5878 2.17977C98.7057 3.18795 99.6978 4.50059 100.534 6.02065C101.209 7.2484 101.795 8.62958 102.273 10.1308ZM93.1263 1.49659C95.408 1.81769 97.5806 3.65108 99.2668 6.7174C99.7558 7.60684 100.198 8.58946 100.583 9.65044C98.2891 9.07417 95.77 8.73442 93.1263 8.68187V1.49659Z" fill="white"/>
</svg>
